<svg xmlns="http://www.w3.org/2000/svg" xmlns:xlink="http://www.w3.org/1999/xlink" width="500" zoomAndPan="magnify" viewBox="0 0 375 374.999991" height="500" preserveAspectRatio="xMidYMid meet" version="1.0"><defs><clipPath id="a87fc5a6a6"><path d="M 187.5 0 C 83.945312 0 0 83.945312 0 187.5 C 0 291.054688 83.945312 375 187.5 375 C 291.054688 375 375 291.054688 375 187.5 C 375 83.945312 291.054688 0 187.5 0 Z M 187.5 0 " clip-rule="nonzero"/></clipPath><clipPath id="19dd494811"><path d="M 55.535156 88.671875 L 319.535156 88.671875 L 319.535156 286.671875 L 55.535156 286.671875 Z M 55.535156 88.671875 " clip-rule="nonzero"/></clipPath></defs><g clip-path="url(#a87fc5a6a6)"><path stroke-linecap="butt" transform="matrix(0.75, 0, 0, 0.75, 0.0000045, 0)" fill="none" stroke-linejoin="miter" d="M 249.999994 0 C 111.927078 0 -0.000006 111.927084 -0.000006 250 C -0.000006 388.072917 111.927078 500.000001 249.999994 500.000001 C 388.072911 500.000001 499.999995 388.072917 499.999995 250 C 499.999995 111.927084 388.072911 0 249.999994 0 Z M 249.999994 0 " stroke="#d9d9d9" stroke-width="6" stroke-opacity="1" stroke-miterlimit="4"/></g><g clip-path="url(#19dd494811)"><path fill="#d9d9d9" d="M 298.746094 286.28125 L 75.984375 286.28125 C 74.296875 286.0625 73.066406 285.871094 72.292969 285.710938 C 65.15625 284.210938 59.234375 278.621094 56.855469 271.949219 C 56.144531 269.953125 55.878906 267.863281 55.535156 265.746094 L 55.535156 108.886719 C 55.90625 107.878906 55.878906 106.746094 56.085938 105.886719 C 56.371094 104.714844 56.65625 103.40625 57.125 102.316406 C 60.132812 95.277344 65.382812 90.929688 72.875 89.269531 C 73.566406 89.117188 74.257812 89.023438 74.949219 88.996094 C 75.878906 88.957031 76.785156 88.738281 77.730469 88.738281 C 150.300781 88.703125 223.648438 88.703125 297.769531 88.738281 C 298.335938 88.738281 298.898438 88.777344 299.453125 88.859375 C 300.007812 88.945312 300.566406 89.023438 301.128906 89.097656 C 303.070312 89.351562 304.785156 89.8125 306.273438 90.480469 C 313.367188 93.644531 318.601562 100.308594 319.125 108.246094 C 319.207031 109.535156 319.339844 110.785156 319.332031 112.0625 C 319.03125 151.449219 319.195312 190.867188 319.199219 233.039062 C 319.199219 242.070312 319.4375 251.574219 319.3125 261.089844 C 319.273438 264.019531 319.207031 266.003906 319.109375 267.042969 C 318.519531 273.273438 315.578125 278.355469 310.285156 282.28125 C 307.761719 284.152344 304.941406 285.339844 301.824219 285.84375 C 300.800781 286.011719 299.773438 286.15625 298.746094 286.28125 Z M 183.511719 207.488281 C 186.863281 208.757812 190.796875 207.933594 193.398438 205.511719 C 216.386719 184.105469 239.246094 162.917969 261.972656 141.945312 C 275.101562 129.835938 288.117188 117.785156 301.015625 105.792969 C 301.214844 105.609375 301.222656 105.417969 301.035156 105.21875 C 300.742188 104.910156 300.304688 104.757812 299.726562 104.757812 C 224.449219 104.730469 150.082031 104.71875 76.628906 104.71875 C 75.1875 104.71875 74.367188 105.050781 73.394531 105.984375 C 73.253906 106.117188 73.253906 106.25 73.402344 106.378906 C 74.1875 107.070312 74.972656 107.773438 75.761719 108.492188 C 84.523438 116.496094 94.347656 125.582031 105.238281 135.742188 C 128.621094 157.554688 151.3125 178.640625 173.3125 199.003906 C 175.269531 200.8125 177.273438 202.664062 179.332031 204.5625 C 180.980469 206.085938 182.375 207.058594 183.511719 207.488281 Z M 302.917969 126.710938 C 302.917969 126.660156 302.890625 126.613281 302.835938 126.570312 C 302.78125 126.527344 302.726562 126.527344 302.671875 126.566406 C 300.859375 127.964844 299.40625 129.609375 297.679688 131.214844 C 279.007812 148.558594 259.851562 166.429688 240.210938 184.824219 C 240.027344 185.003906 239.828125 185.160156 239.617188 185.300781 C 239.320312 185.5 239.308594 185.71875 239.585938 185.953125 C 240.238281 186.507812 240.816406 187.023438 241.320312 187.496094 C 251.9375 197.441406 263.367188 208.214844 275.605469 219.804688 C 277.972656 222.042969 280.050781 224.042969 281.84375 225.800781 C 283.789062 227.714844 285.855469 229.523438 287.796875 231.429688 C 289.316406 232.921875 290.804688 234.328125 292.257812 235.648438 C 294.679688 237.839844 296.890625 240.148438 299.324219 242.347656 C 300.476562 243.386719 301.59375 244.46875 302.671875 245.589844 C 302.714844 245.640625 302.769531 245.65625 302.832031 245.644531 C 302.933594 245.625 302.980469 245.582031 302.980469 245.507812 C 302.984375 205.972656 302.980469 166.457031 302.976562 126.953125 C 302.976562 126.902344 302.964844 126.855469 302.941406 126.808594 C 302.925781 126.78125 302.917969 126.75 302.917969 126.710938 Z M 72.21875 245.648438 C 73.851562 244.015625 75.621094 242.292969 77.527344 240.480469 C 94.605469 224.234375 111.476562 208.125 128.132812 192.152344 C 130.027344 190.335938 132.023438 188.453125 134.113281 186.507812 C 134.523438 186.128906 134.519531 185.753906 134.105469 185.378906 C 133.300781 184.648438 132.539062 183.945312 131.816406 183.269531 C 111.691406 164.421875 92.742188 146.769531 74.96875 130.308594 C 73.902344 129.324219 72.882812 128.375 71.910156 127.460938 C 71.867188 127.417969 71.84375 127.417969 71.84375 127.460938 L 71.769531 245.460938 C 71.769531 245.882812 71.917969 245.945312 72.21875 245.648438 Z M 188.261719 224.574219 C 180.257812 224.9375 173.804688 222.039062 167.953125 216.523438 C 162.625 211.511719 156.050781 205.355469 148.226562 198.050781 C 147.898438 197.746094 147.542969 197.445312 147.164062 197.160156 C 147.050781 197.074219 146.925781 197.039062 146.785156 197.042969 C 146.648438 197.050781 146.527344 197.101562 146.425781 197.195312 C 145.441406 198.089844 144.507812 199.09375 143.554688 200 C 123.15625 219.488281 102.949219 238.835938 82.933594 258.046875 C 80.40625 260.476562 78.152344 262.59375 76.175781 264.402344 C 75.058594 265.421875 74.003906 266.429688 73.015625 267.425781 C 72.753906 267.691406 72.75 267.964844 73.007812 268.242188 C 74.589844 269.925781 75.980469 269.8125 78.539062 269.8125 C 151.691406 269.8125 224.84375 269.8125 298 269.8125 C 299.804688 269.8125 300.804688 269.628906 301.765625 268.171875 C 301.988281 267.832031 301.949219 267.523438 301.65625 267.25 C 278.085938 244.949219 254.519531 222.621094 230.960938 200.273438 C 229.648438 199.027344 228.539062 197.902344 227.625 196.902344 C 227.503906 196.769531 227.355469 196.699219 227.179688 196.691406 C 227 196.6875 226.84375 196.742188 226.714844 196.863281 C 220.074219 203.003906 213.480469 209.230469 206.894531 215.421875 C 204.371094 217.796875 202.414062 219.429688 201.03125 220.324219 C 196.957031 222.957031 192.699219 224.371094 188.261719 224.574219 Z M 188.261719 224.574219 " fill-opacity="1" fill-rule="nonzero"/></g></svg>