<svg xmlns="http://www.w3.org/2000/svg" xmlns:xlink="http://www.w3.org/1999/xlink" width="500" zoomAndPan="magnify" viewBox="0 0 375 374.999991" height="500" preserveAspectRatio="xMidYMid meet" version="1.0"><defs><clipPath id="e85e495a90"><path d="M 187.5 0 C 83.945312 0 0 83.945312 0 187.5 C 0 291.054688 83.945312 375 187.5 375 C 291.054688 375 375 291.054688 375 187.5 C 375 83.945312 291.054688 0 187.5 0 Z M 187.5 0 " clip-rule="nonzero"/></clipPath><clipPath id="50f79f0862"><path d="M 94.300781 53.15625 L 281 53.15625 L 281 321.65625 L 94.300781 321.65625 Z M 94.300781 53.15625 " clip-rule="nonzero"/></clipPath></defs><g clip-path="url(#e85e495a90)"><path stroke-linecap="butt" transform="matrix(0.75, 0, 0, 0.75, 0.0000045, 0)" fill="none" stroke-linejoin="miter" d="M 249.999994 0 C 111.927078 0 -0.000006 111.927084 -0.000006 250 C -0.000006 388.072917 111.927078 500.000001 249.999994 500.000001 C 388.072911 500.000001 499.999995 388.072917 499.999995 250 C 499.999995 111.927084 388.072911 0 249.999994 0 Z M 249.999994 0 " stroke="#d9d9d9" stroke-width="6" stroke-opacity="1" stroke-miterlimit="4"/></g><g clip-path="url(#50f79f0862)"><path fill="#d9d9d9" d="M 187.503906 53.125 C 136.058594 53.125 94.371094 94.816406 94.371094 146.257812 C 94.371094 154.8125 95.546875 163.09375 97.710938 170.957031 C 99.585938 177.808594 102.210938 184.355469 105.523438 190.480469 C 106.324219 191.957031 107.167969 193.414062 108.042969 194.847656 L 178.257812 316.464844 C 178.40625 316.726562 178.542969 317 178.707031 317.253906 C 180.640625 320.042969 183.851562 321.863281 187.496094 321.863281 C 191.148438 321.863281 194.371094 320.015625 196.300781 317.21875 L 196.597656 316.699219 L 266.9375 194.871094 L 269.480469 190.472656 C 272.785156 184.347656 275.410156 177.800781 277.292969 170.957031 C 279.449219 163.09375 280.628906 154.8125 280.628906 146.257812 C 280.628906 94.816406 238.933594 53.125 187.503906 53.125 Z M 187.496094 185.296875 C 165.925781 185.296875 148.441406 167.816406 148.441406 146.257812 C 148.441406 124.6875 165.921875 107.199219 187.496094 107.199219 C 209.0625 107.199219 226.535156 124.6875 226.535156 146.257812 C 226.535156 167.816406 209.0625 185.296875 187.496094 185.296875 Z M 187.496094 185.296875 " fill-opacity="1" fill-rule="nonzero"/></g></svg>