<svg xmlns="http://www.w3.org/2000/svg" xmlns:xlink="http://www.w3.org/1999/xlink" width="500" zoomAndPan="magnify" viewBox="0 0 375 374.999991" height="500" preserveAspectRatio="xMidYMid meet" version="1.0"><defs><clipPath id="97eb5a21ab"><path d="M 187.5 0 C 83.945312 0 0 83.945312 0 187.5 C 0 291.054688 83.945312 375 187.5 375 C 291.054688 375 375 291.054688 375 187.5 C 375 83.945312 291.054688 0 187.5 0 Z M 187.5 0 " clip-rule="nonzero"/></clipPath><clipPath id="a1feb30b38"><path d="M 81.65625 81.65625 L 293.15625 81.65625 L 293.15625 293.15625 L 81.65625 293.15625 Z M 81.65625 81.65625 " clip-rule="nonzero"/></clipPath></defs><g clip-path="url(#97eb5a21ab)"><path stroke-linecap="butt" transform="matrix(0.75, 0, 0, 0.75, 0.0000045, 0)" fill="none" stroke-linejoin="miter" d="M 249.999994 0 C 111.927078 0 -0.000006 111.927084 -0.000006 250 C -0.000006 388.072917 111.927078 500.000001 249.999994 500.000001 C 388.072911 500.000001 499.999995 388.072917 499.999995 250 C 499.999995 111.927084 388.072911 0 249.999994 0 Z M 249.999994 0 " stroke="#d9d9d9" stroke-width="6" stroke-opacity="1" stroke-miterlimit="4"/></g><g clip-path="url(#a1feb30b38)"><path fill="#d9d9d9" d="M 290.714844 237.050781 C 292.261719 241.179688 293.160156 245.613281 293.296875 250.253906 C 293.332031 250.695312 293.332031 251.136719 293.332031 251.59375 C 293.332031 274.640625 274.636719 293.332031 251.59375 293.332031 C 157.738281 293.332031 81.65625 217.25 81.65625 123.394531 C 81.65625 100.351562 100.351562 81.65625 123.394531 81.65625 C 123.851562 81.65625 124.296875 81.65625 124.738281 81.691406 C 129.375 81.828125 133.828125 82.730469 137.957031 84.273438 L 153.625 152.113281 C 153.625 152.148438 153.609375 152.164062 153.574219 152.183594 L 124.839844 165.097656 L 124.753906 165.132812 C 137.941406 205.289062 169.703125 237.050781 209.859375 250.238281 L 209.890625 250.152344 L 222.824219 221.398438 L 290.714844 237.050781 " fill-opacity="1" fill-rule="nonzero"/></g></svg>